<svg width="116" height="19" viewBox="0 0 116 19" fill="none" xmlns="http://www.w3.org/2000/svg">
<path d="M1.90851 9.14881C15.8787 8.4284 29.8474 7.70644 43.8161 6.98449C54.8981 6.4126 65.9801 5.8407 77.0634 5.26873C75.2321 5.54993 73.4021 5.82946 71.5709 6.11067C59.0424 8.03208 46.5154 9.95502 33.9869 11.8764C26.9535 12.9558 19.9202 14.0351 12.8868 15.1144C12.134 15.2288 11.1408 15.8353 10.987 16.8354C10.8446 17.7615 11.5235 18.4143 12.2592 18.4102C25.562 18.335 38.8571 17.9605 52.1373 17.2985C65.2577 16.6462 78.363 15.7032 91.4454 14.4715C98.7941 13.7803 106.136 12.9967 113.468 12.1223C114.261 12.0284 115.37 11.2877 115.409 10.1854C115.45 9.0259 114.32 8.76568 113.617 8.84931C100.566 10.4033 87.485 11.6724 74.3845 12.651C61.9281 13.5805 49.6036 14.238 37.1734 14.6396C41.5557 13.9665 45.9382 13.2949 50.3205 12.6218C62.849 10.7004 75.3773 8.77733 87.9058 6.85592C94.9392 5.77659 101.972 4.69727 109.006 3.61956C109.798 3.49789 110.908 2.80282 110.947 1.68095C110.988 0.487244 109.857 0.308565 109.155 0.344872C95.1861 1.0652 81.2173 1.78716 67.2486 2.50912C53.3525 3.22664 39.4578 3.94408 25.563 4.66152C17.7274 5.06629 9.89314 5.47098 2.05885 5.87567C1.26705 5.91583 0.154859 6.74631 0.117824 7.81266C0.0767254 9.00798 1.20796 9.18504 1.90851 9.14881Z" fill="#E1EDE1"/>
</svg>
