<svg width="80" height="80" viewBox="0 0 80 80" fill="none" xmlns="http://www.w3.org/2000/svg">
<circle cx="39.8427" cy="39.8427" r="39.8427" fill="white"/>
<path d="M56.875 33.8532C56.641 33.5859 56.3527 33.3716 56.0294 33.2245C55.7061 33.0774 55.3552 33.0009 55 33.0001H49.3171L40.9375 23.4266C40.8202 23.2936 40.6759 23.1871 40.5143 23.1141C40.3526 23.0412 40.1773 23.0034 40 23.0034C39.8226 23.0034 39.6473 23.0412 39.4857 23.1141C39.324 23.1871 39.1798 23.2936 39.0625 23.4266L30.6828 33.0001H25C24.6438 33.0001 24.2918 33.0762 23.9674 33.2233C23.6431 33.3704 23.3539 33.5851 23.1193 33.853C22.8846 34.1209 22.7099 34.4359 22.6069 34.7768C22.5039 35.1177 22.4749 35.4767 22.5218 35.8297L24.6875 52.0813C24.7677 52.6819 25.0635 53.2329 25.5196 53.6319C25.9757 54.0308 26.5612 54.2505 27.1671 54.2501H52.8328C53.4387 54.2505 54.0242 54.0308 54.4803 53.6319C54.9365 53.2329 55.2322 52.6819 55.3125 52.0813L57.4796 35.8313C57.5258 35.4775 57.4958 35.118 57.3915 34.7768C57.2872 34.4356 57.1111 34.1207 56.875 33.8532ZM32.75 49.2501C32.7078 49.2524 32.6656 49.2524 32.6234 49.2501C32.3124 49.2516 32.0121 49.1372 31.7809 48.9292C31.5498 48.7212 31.4045 48.4345 31.3734 48.1251L30.4984 39.3751C30.4652 39.0452 30.5645 38.7157 30.7743 38.459C30.9841 38.2023 31.2873 38.0395 31.6171 38.0063C31.947 37.9732 32.2765 38.0724 32.5332 38.2822C32.7899 38.492 32.9527 38.7952 32.9859 39.1251L33.8609 47.8751C33.8959 48.2047 33.7985 48.5348 33.5902 48.7926C33.3818 49.0505 33.0796 49.215 32.75 49.2501ZM41.25 48.0001C41.25 48.3316 41.1183 48.6495 40.8838 48.8839C40.6494 49.1184 40.3315 49.2501 40 49.2501C39.6684 49.2501 39.3505 49.1184 39.1161 48.8839C38.8817 48.6495 38.75 48.3316 38.75 48.0001V39.2501C38.75 38.9185 38.8817 38.6006 39.1161 38.3662C39.3505 38.1318 39.6684 38.0001 40 38.0001C40.3315 38.0001 40.6494 38.1318 40.8838 38.3662C41.1183 38.6006 41.25 38.9185 41.25 39.2501V48.0001ZM34.0046 33.0001L40 26.1485L45.9953 33.0001H34.0046ZM49.4937 39.3751L48.6187 48.1251C48.5877 48.4331 48.4436 48.7187 48.2141 48.9266C47.9846 49.1344 47.6861 49.2497 47.3765 49.2501C47.3344 49.2524 47.2921 49.2524 47.25 49.2501C47.0866 49.2336 46.9281 49.1852 46.7835 49.1076C46.6389 49.0299 46.511 48.9245 46.4071 48.7974C46.3032 48.6703 46.2254 48.524 46.178 48.3668C46.1307 48.2096 46.1148 48.0446 46.1312 47.8813L47.0062 39.1313C47.0394 38.8014 47.2022 38.4983 47.4589 38.2885C47.7156 38.0786 48.0451 37.9794 48.375 38.0126C48.7048 38.0457 49.008 38.2085 49.2178 38.4652C49.4276 38.7219 49.5269 39.0514 49.4937 39.3813V39.3751Z" fill="#2DA950"/>
</svg>
